<mxfile host="Electron" modified="2024-05-10T06:39:21.918Z" agent="Mozilla/5.0 (Windows NT 10.0; Win64; x64) AppleWebKit/537.36 (KHTML, like Gecko) draw.io/22.1.18 Chrome/120.0.6099.199 Electron/28.1.2 Safari/537.36" etag="RAHCo_EUZ4gc8c0484mD" version="22.1.18" type="device">
  <diagram name="第 1 页" id="jq6gL2bQDw8T9K26-1Al">
    <mxGraphModel dx="1466" dy="733" grid="1" gridSize="10" guides="1" tooltips="1" connect="1" arrows="1" fold="1" page="0" pageScale="1" pageWidth="827" pageHeight="1169" math="0" shadow="0">
      <root>
        <mxCell id="0" />
        <mxCell id="1" parent="0" />
        <mxCell id="DpQlcgJsheW43l7I7FQe-10" value="" style="edgeStyle=orthogonalEdgeStyle;rounded=0;orthogonalLoop=1;jettySize=auto;html=1;" edge="1" parent="1" source="DpQlcgJsheW43l7I7FQe-1" target="DpQlcgJsheW43l7I7FQe-2">
          <mxGeometry relative="1" as="geometry" />
        </mxCell>
        <mxCell id="DpQlcgJsheW43l7I7FQe-1" value="开始" style="strokeWidth=2;html=1;shape=mxgraph.flowchart.terminator;whiteSpace=wrap;" vertex="1" parent="1">
          <mxGeometry x="-140" y="240" width="100" height="60" as="geometry" />
        </mxCell>
        <mxCell id="DpQlcgJsheW43l7I7FQe-11" value="" style="edgeStyle=orthogonalEdgeStyle;rounded=0;orthogonalLoop=1;jettySize=auto;html=1;" edge="1" parent="1" source="DpQlcgJsheW43l7I7FQe-2" target="DpQlcgJsheW43l7I7FQe-5">
          <mxGeometry relative="1" as="geometry" />
        </mxCell>
        <mxCell id="DpQlcgJsheW43l7I7FQe-2" value="输入数据集" style="shape=parallelogram;html=1;strokeWidth=2;perimeter=parallelogramPerimeter;whiteSpace=wrap;rounded=1;arcSize=12;size=0.23;" vertex="1" parent="1">
          <mxGeometry x="30" y="240" width="100" height="60" as="geometry" />
        </mxCell>
        <mxCell id="DpQlcgJsheW43l7I7FQe-13" style="edgeStyle=orthogonalEdgeStyle;rounded=0;orthogonalLoop=1;jettySize=auto;html=1;exitX=0.5;exitY=1;exitDx=0;exitDy=0;endArrow=none;endFill=0;" edge="1" parent="1" source="DpQlcgJsheW43l7I7FQe-5" target="DpQlcgJsheW43l7I7FQe-6">
          <mxGeometry relative="1" as="geometry" />
        </mxCell>
        <mxCell id="DpQlcgJsheW43l7I7FQe-14" style="edgeStyle=orthogonalEdgeStyle;rounded=0;orthogonalLoop=1;jettySize=auto;html=1;endArrow=none;endFill=0;" edge="1" parent="1" source="DpQlcgJsheW43l7I7FQe-5" target="DpQlcgJsheW43l7I7FQe-7">
          <mxGeometry relative="1" as="geometry" />
        </mxCell>
        <mxCell id="DpQlcgJsheW43l7I7FQe-5" value="Apriori算法处理" style="rounded=0;whiteSpace=wrap;html=1;" vertex="1" parent="1">
          <mxGeometry x="220" y="240" width="120" height="60" as="geometry" />
        </mxCell>
        <mxCell id="DpQlcgJsheW43l7I7FQe-6" value="1.找出所有频繁项集" style="rounded=0;whiteSpace=wrap;html=1;" vertex="1" parent="1">
          <mxGeometry x="150" y="345" width="120" height="60" as="geometry" />
        </mxCell>
        <mxCell id="DpQlcgJsheW43l7I7FQe-7" value="2.产生强相关联规则" style="rounded=0;whiteSpace=wrap;html=1;" vertex="1" parent="1">
          <mxGeometry x="290" y="345" width="120" height="60" as="geometry" />
        </mxCell>
        <mxCell id="DpQlcgJsheW43l7I7FQe-15" style="edgeStyle=orthogonalEdgeStyle;rounded=0;orthogonalLoop=1;jettySize=auto;html=1;exitX=0.5;exitY=0;exitDx=0;exitDy=0;exitPerimeter=0;entryX=0;entryY=0.5;entryDx=0;entryDy=0;" edge="1" parent="1" source="DpQlcgJsheW43l7I7FQe-8" target="DpQlcgJsheW43l7I7FQe-5">
          <mxGeometry relative="1" as="geometry" />
        </mxCell>
        <mxCell id="DpQlcgJsheW43l7I7FQe-20" value="" style="edgeStyle=orthogonalEdgeStyle;rounded=0;orthogonalLoop=1;jettySize=auto;html=1;" edge="1" parent="1" source="DpQlcgJsheW43l7I7FQe-8" target="DpQlcgJsheW43l7I7FQe-19">
          <mxGeometry relative="1" as="geometry" />
        </mxCell>
        <mxCell id="DpQlcgJsheW43l7I7FQe-8" value="满足条件？" style="strokeWidth=2;html=1;shape=mxgraph.flowchart.decision;whiteSpace=wrap;" vertex="1" parent="1">
          <mxGeometry x="460" y="220" width="100" height="100" as="geometry" />
        </mxCell>
        <mxCell id="DpQlcgJsheW43l7I7FQe-9" value="&lt;font color=&quot;#ff0a2b&quot;&gt;支持度&amp;gt;=最小支持度&lt;br&gt;置信度&amp;gt;=最小置信度&lt;/font&gt;" style="text;html=1;strokeColor=none;fillColor=none;align=center;verticalAlign=middle;whiteSpace=wrap;rounded=0;" vertex="1" parent="1">
          <mxGeometry x="500" y="300" width="170" height="30" as="geometry" />
        </mxCell>
        <mxCell id="DpQlcgJsheW43l7I7FQe-12" style="edgeStyle=orthogonalEdgeStyle;rounded=0;orthogonalLoop=1;jettySize=auto;html=1;exitX=1;exitY=0.5;exitDx=0;exitDy=0;entryX=0;entryY=0.5;entryDx=0;entryDy=0;entryPerimeter=0;" edge="1" parent="1" source="DpQlcgJsheW43l7I7FQe-5" target="DpQlcgJsheW43l7I7FQe-8">
          <mxGeometry relative="1" as="geometry" />
        </mxCell>
        <mxCell id="DpQlcgJsheW43l7I7FQe-16" value="否" style="text;html=1;strokeColor=none;fillColor=none;align=center;verticalAlign=middle;whiteSpace=wrap;rounded=0;" vertex="1" parent="1">
          <mxGeometry x="520" y="190" width="60" height="30" as="geometry" />
        </mxCell>
        <mxCell id="DpQlcgJsheW43l7I7FQe-17" value="调整模型参数" style="text;html=1;strokeColor=none;fillColor=none;align=center;verticalAlign=middle;whiteSpace=wrap;rounded=0;" vertex="1" parent="1">
          <mxGeometry x="270" y="170" width="90" height="30" as="geometry" />
        </mxCell>
        <mxCell id="DpQlcgJsheW43l7I7FQe-19" value="输出关联规则" style="shape=parallelogram;perimeter=parallelogramPerimeter;whiteSpace=wrap;html=1;fixedSize=1;strokeWidth=2;" vertex="1" parent="1">
          <mxGeometry x="660" y="240" width="120" height="60" as="geometry" />
        </mxCell>
        <mxCell id="DpQlcgJsheW43l7I7FQe-21" value="结束" style="strokeWidth=2;html=1;shape=mxgraph.flowchart.terminator;whiteSpace=wrap;" vertex="1" parent="1">
          <mxGeometry x="840" y="240" width="100" height="60" as="geometry" />
        </mxCell>
        <mxCell id="DpQlcgJsheW43l7I7FQe-22" style="edgeStyle=orthogonalEdgeStyle;rounded=0;orthogonalLoop=1;jettySize=auto;html=1;exitX=1;exitY=0.5;exitDx=0;exitDy=0;entryX=0;entryY=0.5;entryDx=0;entryDy=0;entryPerimeter=0;" edge="1" parent="1" source="DpQlcgJsheW43l7I7FQe-19" target="DpQlcgJsheW43l7I7FQe-21">
          <mxGeometry relative="1" as="geometry" />
        </mxCell>
        <mxCell id="DpQlcgJsheW43l7I7FQe-25" style="edgeStyle=orthogonalEdgeStyle;rounded=0;orthogonalLoop=1;jettySize=auto;html=1;exitX=0.5;exitY=1;exitDx=0;exitDy=0;exitPerimeter=0;entryX=0.5;entryY=0;entryDx=0;entryDy=0;" edge="1" parent="1" source="DpQlcgJsheW43l7I7FQe-23" target="DpQlcgJsheW43l7I7FQe-24">
          <mxGeometry relative="1" as="geometry" />
        </mxCell>
        <mxCell id="DpQlcgJsheW43l7I7FQe-23" value="开始" style="strokeWidth=2;html=1;shape=mxgraph.flowchart.terminator;whiteSpace=wrap;" vertex="1" parent="1">
          <mxGeometry x="265" y="450" width="100" height="60" as="geometry" />
        </mxCell>
        <mxCell id="DpQlcgJsheW43l7I7FQe-30" style="edgeStyle=orthogonalEdgeStyle;rounded=0;orthogonalLoop=1;jettySize=auto;html=1;exitX=0.5;exitY=1;exitDx=0;exitDy=0;" edge="1" parent="1" source="DpQlcgJsheW43l7I7FQe-24" target="DpQlcgJsheW43l7I7FQe-26">
          <mxGeometry relative="1" as="geometry" />
        </mxCell>
        <mxCell id="DpQlcgJsheW43l7I7FQe-24" value="输入数据集" style="shape=parallelogram;html=1;strokeWidth=2;perimeter=parallelogramPerimeter;whiteSpace=wrap;rounded=1;arcSize=12;size=0.23;" vertex="1" parent="1">
          <mxGeometry x="265" y="540" width="100" height="60" as="geometry" />
        </mxCell>
        <mxCell id="DpQlcgJsheW43l7I7FQe-31" value="" style="edgeStyle=orthogonalEdgeStyle;rounded=0;orthogonalLoop=1;jettySize=auto;html=1;" edge="1" parent="1" source="DpQlcgJsheW43l7I7FQe-26" target="DpQlcgJsheW43l7I7FQe-27">
          <mxGeometry relative="1" as="geometry" />
        </mxCell>
        <mxCell id="DpQlcgJsheW43l7I7FQe-26" value="数据预处理" style="rounded=0;whiteSpace=wrap;html=1;" vertex="1" parent="1">
          <mxGeometry x="255" y="620" width="120" height="60" as="geometry" />
        </mxCell>
        <mxCell id="DpQlcgJsheW43l7I7FQe-33" style="edgeStyle=orthogonalEdgeStyle;rounded=0;orthogonalLoop=1;jettySize=auto;html=1;exitX=0.5;exitY=1;exitDx=0;exitDy=0;entryX=0.5;entryY=0;entryDx=0;entryDy=0;" edge="1" parent="1" source="DpQlcgJsheW43l7I7FQe-27" target="DpQlcgJsheW43l7I7FQe-32">
          <mxGeometry relative="1" as="geometry" />
        </mxCell>
        <mxCell id="DpQlcgJsheW43l7I7FQe-27" value="加密实体样本" style="rounded=0;whiteSpace=wrap;html=1;" vertex="1" parent="1">
          <mxGeometry x="255" y="700" width="120" height="60" as="geometry" />
        </mxCell>
        <mxCell id="DpQlcgJsheW43l7I7FQe-28" value="" style="strokeWidth=2;html=1;shape=mxgraph.flowchart.annotation_2;align=left;labelPosition=right;pointerEvents=1;dashed=1;" vertex="1" parent="1">
          <mxGeometry x="150" y="640" width="50" height="100" as="geometry" />
        </mxCell>
        <mxCell id="DpQlcgJsheW43l7I7FQe-29" value="纵向联邦的思想" style="text;strokeColor=none;align=center;fillColor=none;html=1;verticalAlign=middle;whiteSpace=wrap;rounded=0;dashed=1;" vertex="1" parent="1">
          <mxGeometry x="40" y="675" width="100" height="30" as="geometry" />
        </mxCell>
        <mxCell id="DpQlcgJsheW43l7I7FQe-35" style="edgeStyle=orthogonalEdgeStyle;rounded=0;orthogonalLoop=1;jettySize=auto;html=1;exitX=0.5;exitY=1;exitDx=0;exitDy=0;" edge="1" parent="1" source="DpQlcgJsheW43l7I7FQe-32" target="DpQlcgJsheW43l7I7FQe-34">
          <mxGeometry relative="1" as="geometry" />
        </mxCell>
        <mxCell id="DpQlcgJsheW43l7I7FQe-32" value="C方创建密钥对，并将公共密钥发送给A方和B方" style="rounded=0;whiteSpace=wrap;html=1;" vertex="1" parent="1">
          <mxGeometry x="225" y="790" width="185" height="60" as="geometry" />
        </mxCell>
        <mxCell id="DpQlcgJsheW43l7I7FQe-37" style="edgeStyle=orthogonalEdgeStyle;rounded=0;orthogonalLoop=1;jettySize=auto;html=1;exitX=0.5;exitY=1;exitDx=0;exitDy=0;entryX=0.5;entryY=0;entryDx=0;entryDy=0;" edge="1" parent="1" source="DpQlcgJsheW43l7I7FQe-34" target="DpQlcgJsheW43l7I7FQe-36">
          <mxGeometry relative="1" as="geometry" />
        </mxCell>
        <mxCell id="DpQlcgJsheW43l7I7FQe-34" value="针对A方和B方的每个特征进行加密并发送给C方" style="rounded=0;whiteSpace=wrap;html=1;" vertex="1" parent="1">
          <mxGeometry x="225" y="880" width="185" height="60" as="geometry" />
        </mxCell>
        <mxCell id="DpQlcgJsheW43l7I7FQe-39" value="" style="edgeStyle=orthogonalEdgeStyle;rounded=0;orthogonalLoop=1;jettySize=auto;html=1;" edge="1" parent="1" source="DpQlcgJsheW43l7I7FQe-36" target="DpQlcgJsheW43l7I7FQe-38">
          <mxGeometry relative="1" as="geometry" />
        </mxCell>
        <mxCell id="DpQlcgJsheW43l7I7FQe-36" value="C方用私钥对加密的数据进行解密" style="rounded=0;whiteSpace=wrap;html=1;" vertex="1" parent="1">
          <mxGeometry x="225" y="970" width="185" height="60" as="geometry" />
        </mxCell>
        <mxCell id="DpQlcgJsheW43l7I7FQe-41" value="" style="edgeStyle=orthogonalEdgeStyle;rounded=0;orthogonalLoop=1;jettySize=auto;html=1;" edge="1" parent="1" source="DpQlcgJsheW43l7I7FQe-38" target="DpQlcgJsheW43l7I7FQe-40">
          <mxGeometry relative="1" as="geometry" />
        </mxCell>
        <mxCell id="DpQlcgJsheW43l7I7FQe-38" value="C方对A方和B方的数据进行关联分析，挖掘关联规则" style="rounded=0;whiteSpace=wrap;html=1;" vertex="1" parent="1">
          <mxGeometry x="225" y="1060" width="185" height="60" as="geometry" />
        </mxCell>
        <mxCell id="DpQlcgJsheW43l7I7FQe-40" value="结束" style="strokeWidth=2;html=1;shape=mxgraph.flowchart.terminator;whiteSpace=wrap;" vertex="1" parent="1">
          <mxGeometry x="267.5" y="1150" width="100" height="60" as="geometry" />
        </mxCell>
      </root>
    </mxGraphModel>
  </diagram>
</mxfile>
